<svg width="279" height="213" viewBox="0 0 279 213" fill="none" xmlns="http://www.w3.org/2000/svg">
<path d="M67.3482 34.7343C61.9548 35.9226 58.5459 41.2583 59.7343 46.6518C60.9226 52.0452 66.2583 55.4541 71.6518 54.2657L67.3482 34.7343ZM203.856 49.6361C198.408 50.544 194.728 55.6963 195.636 61.144C196.544 66.5917 201.696 70.2719 207.144 69.3639L203.856 49.6361ZM268.166 50.4555L258.419 48.2195L268.166 50.4555ZM267.027 49.2455L265.383 39.3816L267.027 49.2455ZM248.351 134.117L246.571 124.277L248.351 134.117ZM249.148 133.357L258.894 135.593L249.148 133.357ZM154.666 150.326L145.706 154.767L154.666 150.326ZM155.74 150.866L153.96 141.026L155.74 150.866ZM98.2361 38.1683L100.388 47.9341L98.2361 38.1683ZM99.3473 38.7008L90.3872 43.1412L99.3473 38.7008ZM71.6518 54.2657L100.388 47.9341L96.0844 28.4026L67.3482 34.7343L71.6518 54.2657ZM90.3872 43.1412L145.706 154.767L163.626 145.886L108.307 34.2605L90.3872 43.1412ZM157.52 160.707L250.13 143.958L246.571 124.277L153.96 141.026L157.52 160.707ZM258.894 135.593L277.913 52.6915L258.419 48.2195L239.401 131.121L258.894 135.593ZM265.383 39.3816L203.856 49.6361L207.144 69.3639L268.671 59.1094L265.383 39.3816ZM277.913 52.6915C279.664 45.0599 273.106 38.0943 265.383 39.3816L268.671 59.1094C262.352 60.1626 256.987 54.4635 258.419 48.2195L277.913 52.6915ZM250.13 143.958C254.462 143.174 257.91 139.884 258.894 135.593L239.401 131.121C240.206 127.61 243.027 124.918 246.571 124.277L250.13 143.958ZM145.706 154.767C147.882 159.157 152.698 161.578 157.52 160.707L153.96 141.026C157.905 140.312 161.846 142.294 163.626 145.886L145.706 154.767ZM100.388 47.9341C96.3491 48.824 92.2237 46.8468 90.3872 43.1412L108.307 34.2605C106.063 29.7314 101.021 27.3149 96.0844 28.4026L100.388 47.9341Z" fill="url(#paint0_linear)"/>
<circle cx="160" cy="195" r="18" fill="#12497C"/>
<circle cx="261" cy="177" r="18" fill="#12497C"/>
<path fill-rule="evenodd" clip-rule="evenodd" d="M194.403 15.8928L190.957 40.1492L166.205 36.632L169.652 12.3757L169.722 11.8806L169.732 11.882C170.931 5.31354 177.117 0.810904 183.786 1.75858C190.455 2.70626 195.143 8.7541 194.464 15.3964L194.474 15.3978L194.403 15.8928Z" fill="#FFC700"/>
<path fill-rule="evenodd" clip-rule="evenodd" d="M187.51 64.4055L190.957 40.1491L166.205 36.632L162.759 60.8883L162.688 61.3833L162.698 61.3847C162.019 68.027 166.707 74.0749 173.376 75.0226C180.045 75.9702 186.231 71.4676 187.43 64.8991L187.44 64.9005L187.51 64.4055Z" fill="black"/>
<path fill-rule="evenodd" clip-rule="evenodd" d="M167.537 76.638L189.501 87.4938L178.424 109.906L156.46 99.0499L156.012 98.8284L156.016 98.8195C150.151 95.6281 147.808 88.344 150.793 82.3053C153.777 76.2665 160.987 73.7043 167.085 76.4253L167.089 76.4165L167.537 76.638Z" fill="#FF0000"/>
<path fill-rule="evenodd" clip-rule="evenodd" d="M211.465 98.3494L189.501 87.4936L178.424 109.906L200.387 120.761L200.836 120.983L200.84 120.974C206.937 123.695 214.147 121.133 217.132 115.094C220.117 109.055 217.773 101.771 211.909 98.5798L211.913 98.571L211.465 98.3494Z" fill="black"/>
<rect x="7" y="79" width="73" height="14" fill="#12497C"/>
<circle cx="7" cy="86" r="7" fill="#12497C"/>
<circle cx="79" cy="86" r="7" fill="#12497C"/>
<rect x="49" y="115" width="36" height="14" fill="#12497C"/>
<circle cx="49" cy="122" r="7" fill="#12497C"/>
<circle cx="85" cy="122" r="7" fill="#12497C"/>
<defs>
<linearGradient id="paint0_linear" x1="50.5" y1="57" x2="269" y2="94" gradientUnits="userSpaceOnUse">
<stop offset="0.0859141" stop-color="#12497B"/>
<stop offset="1" stop-color="#00B3FC"/>
</linearGradient>
</defs>
</svg>
