<svg width="129" height="129" viewBox="0 0 129 129" fill="none" xmlns="http://www.w3.org/2000/svg">
<path d="M92.0208 81.0833H86.2604L84.2188 79.1146C91.3646 70.8021 95.6667 60.0104 95.6667 48.2708C95.6667 22.0938 74.4479 0.875 48.2708 0.875C22.0938 0.875 0.875 22.0938 0.875 48.2708C0.875 74.4479 22.0938 95.6667 48.2708 95.6667C60.0104 95.6667 70.8021 91.3646 79.1146 84.2188L81.0833 86.2604V92.0208L117.542 128.406L128.406 117.542L92.0208 81.0833V81.0833ZM48.2708 81.0833C30.1146 81.0833 15.4583 66.4271 15.4583 48.2708C15.4583 30.1146 30.1146 15.4583 48.2708 15.4583C66.4271 15.4583 81.0833 30.1146 81.0833 48.2708C81.0833 66.4271 66.4271 81.0833 48.2708 81.0833Z" fill="black"/>
</svg>
